<?xml version="1.0" standalone="no"?>
<!DOCTYPE svg PUBLIC "-//W3C//DTD SVG 20010904//EN"
 "http://www.w3.org/TR/2001/REC-SVG-20010904/DTD/svg10.dtd">
<svg version="1.0" xmlns="http://www.w3.org/2000/svg"
 width="460.000000pt" height="460.000000pt" viewBox="0 0 460.000000 460.000000"
 preserveAspectRatio="xMidYMid meet">
<metadata>
Created by potrace 1.11, written by Peter Selinger 2001-2013
</metadata>
<g transform="translate(0.000000,460.000000) scale(0.100000,-0.100000)"
fill="#000000" stroke="none">
<path d="M1762 4584 c-9 -14 -12 -15 -12 -4 -1 12 -3 12 -14 -2 -7 -10 -16
-15 -19 -11 -4 3 -7 -1 -7 -10 0 -9 -5 -19 -12 -23 -7 -5 -8 -3 -3 7 8 12 6
12 -8 0 -9 -7 -14 -17 -11 -22 3 -5 -2 -9 -11 -9 -10 0 -13 -5 -9 -12 6 -10 5
-10 -7 -1 -12 10 -18 9 -32 -7 -9 -10 -25 -17 -36 -15 -11 2 -22 -3 -25 -12
-4 -9 -13 -13 -23 -9 -10 4 -15 4 -11 1 9 -9 -12 -66 -22 -60 -7 4 -12 -6 -18
-37 -3 -14 -47 -53 -56 -50 -5 2 -3 -5 5 -14 11 -14 11 -16 0 -10 -9 6 -20 0
-35 -16 -11 -13 -17 -17 -11 -8 6 10 2 9 -12 -4 -13 -10 -20 -23 -17 -27 3 -5
1 -9 -3 -9 -5 0 -18 -7 -29 -16 -10 -8 -13 -12 -5 -8 10 5 12 3 7 -5 -5 -7
-14 -10 -22 -7 -8 3 -14 -1 -14 -10 0 -9 -5 -12 -12 -8 -9 5 -8 2 1 -10 12
-15 12 -19 -4 -34 -10 -9 -15 -11 -11 -4 4 6 2 12 -3 12 -6 0 -11 -6 -11 -14
0 -8 -3 -16 -7 -19 -5 -2 -2 -2 5 -1 16 4 15 -2 -5 -25 -9 -11 -21 -17 -26
-14 -5 3 -4 -4 2 -15 14 -26 14 -45 1 -37 -6 3 -7 -1 -4 -9 3 -9 9 -14 13 -12
4 3 7 -4 7 -14 0 -10 -3 -17 -7 -14 -4 2 -9 -3 -13 -11 -3 -9 0 -15 10 -15 8
0 12 -5 9 -10 -4 -6 -10 -8 -14 -6 -4 3 -8 -1 -8 -9 0 -8 5 -12 10 -8 5 3 6
-4 2 -17 -4 -12 -3 -20 1 -17 5 3 9 -5 9 -18 0 -12 -5 -21 -11 -18 -6 2 -14
-3 -18 -12 -4 -11 -2 -14 7 -10 6 4 4 0 -5 -8 -10 -8 -18 -20 -18 -26 0 -7 -4
-9 -10 -6 -5 3 -10 -3 -10 -14 0 -11 -5 -23 -10 -26 -6 -4 -7 -12 -3 -18 4 -8
1 -7 -9 1 -14 11 -16 10 -14 -12 2 -15 -1 -26 -6 -26 -6 0 -8 -7 -4 -15 3 -8
2 -14 -2 -12 -4 1 -8 -2 -10 -8 -2 -5 -13 -20 -24 -32 -12 -13 -18 -26 -15
-29 4 -4 -1 -13 -11 -20 -15 -12 -15 -15 -2 -24 13 -9 13 -12 -4 -25 -10 -7
-19 -25 -20 -39 0 -14 -4 -26 -8 -26 -5 0 -8 -5 -8 -11 0 -5 4 -7 10 -4 6 3 7
-1 4 -10 -4 -9 -13 -14 -22 -10 -12 4 -13 3 -2 -10 7 -8 9 -15 5 -15 -4 0 -1
-8 6 -17 12 -15 12 -16 -4 -10 -11 4 -16 3 -12 -3 3 -6 0 -10 -7 -10 -8 0 -6
-5 5 -11 18 -10 18 -11 0 -26 -10 -8 -13 -12 -7 -9 7 3 14 -3 17 -15 4 -15 2
-18 -7 -10 -9 7 -12 2 -14 -19 -1 -19 4 -32 15 -39 12 -7 13 -10 4 -11 -7 0
-11 -6 -8 -15 4 -8 1 -17 -5 -21 -6 -4 -8 -3 -4 4 3 6 3 13 -2 16 -4 2 -9 -7
-10 -20 -1 -14 5 -27 13 -30 13 -5 13 -8 0 -21 -10 -10 -12 -20 -6 -30 4 -9 6
-25 4 -37 -4 -17 -3 -18 6 -6 8 11 9 8 7 -15 -2 -16 0 -42 4 -56 4 -14 3 -33
-2 -42 -6 -12 -5 -17 3 -17 6 0 9 -7 5 -15 -3 -8 -2 -15 2 -15 4 0 8 -8 9 -17
2 -53 8 -93 13 -93 12 0 17 -126 7 -174 -3 -16 -19 -42 -33 -58 -15 -15 -24
-28 -18 -28 5 0 3 -4 -4 -8 -7 -5 -14 -34 -17 -65 -3 -32 -6 -61 -7 -65 -4
-16 15 -127 28 -164 8 -22 14 -51 14 -63 0 -13 6 -26 13 -28 7 -3 5 -6 -5 -6
-11 -1 -15 -6 -12 -15 3 -8 0 -17 -6 -21 -8 -5 -8 -11 -1 -19 8 -9 5 -23 -8
-49 -13 -25 -15 -38 -7 -41 7 -3 7 -5 -1 -5 -7 -1 -13 -8 -13 -17 0 -8 4 -13
8 -10 4 2 8 -4 8 -14 0 -15 -3 -16 -14 -8 -10 9 -12 8 -10 -3 2 -8 8 -17 13
-21 6 -4 10 -13 10 -20 1 -7 7 -12 14 -10 7 1 10 -2 6 -8 -4 -7 -13 -6 -28 1
-17 9 -20 9 -10 -1 6 -7 9 -20 6 -29 -4 -14 -3 -14 6 -1 9 13 11 13 11 0 0
-13 1 -13 10 0 8 12 10 10 11 -10 0 -21 2 -22 8 -7 7 18 8 18 21 1 9 -11 10
-15 3 -10 -9 5 -13 0 -15 -16 0 -13 -2 -30 -3 -38 -1 -8 1 -19 4 -25 9 -16 8
-29 -4 -37 -6 -5 -5 -8 3 -8 10 0 10 -5 2 -20 -12 -22 -1 -27 18 -8 9 9 12 9
12 0 0 -6 -6 -15 -14 -19 -11 -6 -11 -10 -1 -20 10 -9 15 -6 24 14 9 21 9 28
-1 34 -6 4 -16 5 -22 2 -5 -3 -6 -1 -2 5 4 7 23 12 42 12 21 0 33 -4 29 -10
-4 -6 -10 -8 -14 -6 -4 3 -15 -17 -25 -44 -13 -37 -22 -48 -36 -45 -14 3 -17
-2 -15 -21 2 -18 -1 -22 -10 -14 -13 11 -25 4 -25 -14 0 -6 5 -4 10 4 8 13 10
12 10 -3 0 -14 4 -16 18 -9 15 9 26 9 57 2 23 -5 46 1 40 10 -4 6 -3 10 2 9 4
-1 14 -1 22 0 11 1 11 4 0 18 -10 12 -11 15 -1 9 7 -4 21 -2 30 5 14 11 15 11
4 -1 -16 -18 -16 -38 0 -22 7 7 17 12 22 12 6 0 1 -7 -11 -15 -14 -10 -20 -22
-16 -33 4 -13 2 -13 -11 3 -10 13 -15 15 -13 5 2 -8 2 -12 0 -7 -3 4 -9 7 -14
7 -6 0 -7 -5 -3 -12 4 -6 3 -8 -4 -4 -6 3 -14 1 -18 -5 -3 -6 -1 -15 6 -19 8
-5 7 -9 -5 -13 -9 -4 -13 -3 -10 3 10 17 -7 11 -22 -7 -8 -10 -11 -12 -7 -4 5
9 3 12 -4 7 -17 -10 -15 -41 3 -56 18 -15 19 -27 3 -33 -7 -2 -5 -3 4 -2 10 2
21 -1 24 -6 5 -8 -12 -12 -46 -10 -10 0 -11 -1 -2 -5 6 -3 9 -10 6 -15 -3 -6
0 -17 7 -25 10 -13 15 -12 36 7 13 13 23 17 23 10 0 -7 4 -9 10 -6 6 4 7 -1 3
-12 -5 -15 -3 -16 8 -6 16 16 29 17 29 2 0 -5 -4 -7 -10 -4 -6 3 -7 -1 -4 -10
5 -13 9 -13 23 -3 15 12 15 11 0 -7 -9 -11 -19 -30 -21 -42 -5 -17 -2 -20 11
-15 13 5 14 3 3 -10 -10 -13 -10 -17 0 -20 18 -6 49 3 43 12 -3 5 4 6 15 3 16
-4 19 -2 14 13 -4 11 -4 16 0 12 12 -10 17 -88 6 -88 -5 0 -7 -7 -4 -15 4 -8
1 -15 -6 -15 -6 0 -9 4 -6 9 4 5 0 12 -6 14 -10 4 -10 6 0 6 7 1 10 6 6 13 -4
7 -3 8 4 4 7 -4 12 -2 12 3 0 17 -20 13 -26 -4 -5 -12 -10 -13 -20 -4 -8 6
-14 8 -14 3 0 -5 -5 -1 -11 9 -5 9 -15 17 -20 17 -14 0 21 -35 35 -35 6 -1 10
-7 8 -14 -1 -7 2 -10 8 -6 9 6 14 -8 11 -28 -1 -5 3 -6 8 -3 17 11 71 14 71 4
0 -5 4 -7 9 -4 11 7 63 -33 56 -44 -3 -5 0 -12 6 -15 5 -4 8 -14 4 -23 -7 -19
14 -33 34 -22 12 6 16 3 16 -15 0 -16 -3 -21 -10 -14 -6 6 -14 1 -23 -13 -11
-18 -12 -19 -7 -3 3 11 3 16 -1 12 -4 -4 -14 -1 -23 6 -14 11 -14 10 -2 -5 7
-10 12 -18 10 -19 -25 -5 -69 -2 -69 5 0 5 -7 3 -15 -4 -9 -7 -18 -10 -21 -7
-3 3 -18 1 -33 -5 -14 -5 -44 -11 -66 -13 -50 -4 -117 -16 -130 -24 -5 -3 -16
-6 -23 -7 -8 -2 -21 -6 -30 -10 -9 -4 -19 -8 -22 -9 -3 0 -27 -11 -54 -23 -27
-12 -52 -22 -57 -22 -15 0 -79 -34 -79 -42 0 -4 -4 -8 -10 -8 -8 0 -72 -43
-116 -79 -9 -8 -111 -42 -121 -41 -2 0 -4 0 -5 -1 -2 -1 -14 -2 -28 -4 -14 -1
-56 -10 -95 -20 -38 -9 -90 -18 -115 -20 -44 -3 -101 -12 -144 -21 -11 -3 -25
-6 -31 -7 -5 -2 -16 -6 -22 -10 -7 -5 -17 -5 -23 -2 -5 3 -10 1 -10 -4 0 -6
-3 -10 -7 -10 -5 1 -18 1 -30 0 l-23 -1 0 -275 0 -275 2300 0 2300 0 -2 222
-3 221 -35 3 c-19 2 -51 6 -70 10 -19 4 -42 8 -50 10 -8 1 -25 5 -37 8 -13 3
-31 8 -41 10 -20 5 -122 46 -197 81 -48 22 -115 49 -125 51 -3 0 -23 8 -45 17
-22 10 -44 17 -49 16 -5 0 -12 3 -15 8 -3 4 -26 18 -51 29 -140 66 -194 93
-272 141 -98 60 -202 92 -348 107 -14 2 -34 6 -45 11 -24 10 -84 70 -88 88 -1
6 -6 15 -12 19 -6 5 -5 8 2 8 7 0 10 6 7 14 -3 7 2 16 11 20 9 3 13 11 9 18
-5 7 -2 9 8 6 9 -4 15 0 15 8 0 10 -7 12 -21 9 -19 -5 -19 -5 2 8 12 7 20 16
17 20 -3 4 -2 5 2 2 3 -3 12 3 19 13 12 15 15 15 24 2 7 -11 5 -17 -10 -24
-11 -5 -20 -14 -20 -20 0 -6 5 -5 12 2 15 15 31 16 22 0 -4 -7 -3 -8 5 -4 6 4
9 12 6 17 -4 5 -1 9 4 9 6 0 11 5 11 11 0 5 -4 7 -10 4 -5 -3 -10 -1 -10 4 0
10 27 16 56 12 15 -2 26 26 14 34 -5 3 -7 12 -3 20 4 11 1 13 -11 9 -20 -8
-20 -14 1 -29 11 -8 13 -14 5 -19 -7 -4 -12 -2 -12 5 0 8 -4 8 -15 -1 -9 -7
-18 -10 -22 -6 -3 3 -1 6 5 6 7 0 12 7 12 16 0 8 -5 12 -10 9 -6 -3 -10 -1
-10 4 0 6 4 11 8 11 5 0 17 7 28 15 19 14 19 14 -1 11 -11 -2 -26 -6 -34 -8
-7 -1 -16 4 -18 12 -4 13 -3 13 6 0 6 -9 11 -10 11 -3 0 6 8 10 18 8 9 -1 25
2 34 7 14 7 16 5 11 -9 -3 -10 -2 -15 2 -10 5 4 16 -4 25 -19 14 -21 18 -23
24 -9 3 9 2 13 -3 10 -5 -3 -12 -1 -16 5 -3 5 -2 10 3 10 5 0 12 10 15 21 4
15 11 20 21 16 18 -7 22 8 4 19 -6 4 -19 -2 -29 -14 -21 -27 -28 -28 -25 -4 2
9 7 17 12 17 18 0 34 17 28 28 -3 7 0 5 8 -4 7 -9 20 -15 28 -14 10 2 17 -6
18 -19 1 -17 -1 -18 -9 -6 -9 13 -10 13 -6 0 4 -17 53 -24 62 -9 4 5 11 7 16
4 5 -3 6 1 2 10 -5 13 -7 14 -14 3 -6 -9 -9 -9 -9 -1 0 6 5 15 10 18 6 4 9 20
6 35 -2 16 -1 32 2 35 4 4 7 14 7 23 0 9 6 16 14 14 7 -1 19 2 25 8 7 5 16 6
21 2 4 -4 3 2 -2 13 -6 11 -8 27 -6 35 4 13 3 13 -6 0 -8 -11 -11 -12 -11 -2
0 7 -4 11 -9 7 -5 -3 -13 0 -17 6 -4 7 -3 9 2 6 6 -3 16 -2 24 3 12 7 10 9 -5
8 -11 0 -27 1 -35 4 -8 3 -12 3 -7 1 16 -9 6 -22 -14 -18 -12 3 -18 1 -15 -3
4 -4 11 -7 14 -8 60 -7 86 -51 30 -51 -15 0 -28 4 -28 9 0 4 3 7 8 7 4 -1 14
-1 22 0 12 1 11 4 -4 12 -10 6 -21 7 -25 3 -3 -5 -10 -10 -16 -11 -5 -1 -17
-3 -25 -6 -8 -2 -12 -2 -7 0 4 3 7 11 7 19 0 9 5 12 13 8 10 -6 10 -4 0 7 -19
20 -16 39 5 32 9 -3 14 -3 10 1 -5 7 -27 13 -51 15 -4 1 -3 10 3 22 7 11 14
18 17 15 4 -3 12 -1 18 4 9 7 17 5 26 -7 8 -9 9 -14 3 -10 -6 3 -11 0 -11 -7
0 -8 11 -12 29 -11 18 2 37 -6 53 -21 27 -25 31 -23 15 7 -6 10 -17 19 -25 19
-9 0 -12 6 -9 15 5 13 9 13 23 3 14 -12 15 -11 2 5 -12 15 -17 16 -26 5 -17
-22 -32 -19 -44 10 -10 24 -10 25 2 10 19 -24 27 -23 22 2 -3 14 0 18 8 13 18
-11 37 -12 37 -3 0 5 -6 11 -12 13 -10 4 -10 6 0 6 7 1 10 6 6 13 -4 7 -3 8 4
4 10 -6 16 4 14 25 -1 10 33 7 39 -4 4 -5 7 3 7 18 0 15 -3 23 -7 17 -6 -9
-38 -8 -47 1 -3 2 2 10 11 17 13 11 15 10 9 -6 -5 -16 -4 -16 5 -4 18 25 12
33 -19 27 -16 -4 -32 -2 -35 3 -4 6 -10 8 -15 5 -5 -3 -11 4 -15 15 -3 11 -12
20 -20 20 -7 0 -15 6 -18 13 -3 8 1 14 9 14 7 0 10 -5 7 -10 -3 -6 -1 -7 5 -3
5 3 13 0 15 -6 4 -8 6 -9 6 -2 1 6 -6 17 -14 24 -16 13 -20 31 -7 29 20 -3 32
2 26 12 -4 8 -9 7 -15 -2 -5 -8 -9 -10 -9 -5 0 5 -6 3 -13 -3 -10 -8 -14 -7
-14 4 0 8 4 12 9 9 4 -3 8 0 8 6 0 6 5 8 10 5 6 -3 10 -1 10 6 0 8 4 8 13 1 9
-8 17 -8 27 0 12 8 11 9 -3 4 -12 -4 -17 -2 -14 6 2 7 10 12 16 10 6 -1 11 2
11 6 0 5 7 9 15 9 8 0 15 -6 15 -14 0 -7 5 -13 10 -13 7 0 7 6 2 18 -5 9 -7
24 -5 32 3 9 0 8 -9 -4 -14 -18 -15 -18 -21 3 -3 11 -1 24 4 27 5 3 6 10 3 16
-5 8 -1 9 10 5 13 -5 15 -3 7 11 -5 9 -10 22 -12 27 -1 6 -10 9 -20 7 -17 -3
-18 2 -12 45 3 26 17 73 30 103 14 30 26 62 28 70 2 8 10 38 19 65 28 87 54
255 51 330 -4 100 -48 177 -109 193 -31 8 -106 -4 -106 -18 0 -3 -7 -7 -15 -7
-13 0 -20 10 -13 20 1 1 -4 12 -10 24 -8 15 -9 24 -2 28 7 4 7 11 2 18 -10 12
-9 29 3 67 5 17 4 21 -5 15 -9 -6 -11 -4 -4 6 13 21 14 40 1 32 -6 -4 -8 0 -4
9 3 9 0 21 -6 28 -10 10 -8 11 7 6 19 -7 19 -6 2 13 -18 20 -18 20 4 16 19 -4
20 -2 8 12 -7 9 -12 18 -10 20 8 12 -1 21 -15 16 -12 -4 -10 1 7 16 14 12 20
20 14 17 -7 -3 -14 0 -17 7 -7 20 -7 27 1 25 4 -2 6 -7 4 -11 -1 -5 2 -6 7 -3
14 9 8 32 -15 57 -10 12 -14 19 -8 16 7 -4 14 0 17 7 4 10 0 13 -14 11 -18 -4
-19 -2 -7 13 7 9 18 20 23 24 6 5 4 8 -4 8 -8 0 -19 -7 -26 -16 -11 -15 -12
-15 -12 0 0 9 3 16 7 16 9 0 7 62 -3 78 -5 6 -6 12 -2 12 3 0 1 10 -5 23 -10
20 -10 20 3 5 8 -10 18 -18 22 -18 4 0 2 7 -5 15 -6 8 -8 20 -4 26 5 8 3 9 -6
4 -10 -6 -12 -4 -7 8 3 9 2 19 -4 22 -5 4 -7 11 -4 16 4 5 1 9 -4 9 -6 0 -11
-5 -11 -12 0 -6 -2 -9 -5 -6 -3 3 -1 17 4 32 10 25 -2 39 -12 14 -4 -9 -6 -8
-6 2 -1 9 4 21 10 27 9 9 6 11 -12 7 l-24 -5 25 16 c21 13 22 15 4 10 -14 -4
-21 -1 -21 9 0 9 4 13 8 10 4 -2 11 1 15 7 4 8 3 9 -4 5 -6 -3 -16 3 -23 15
-10 19 -9 21 5 16 10 -4 15 -3 11 3 -3 6 -14 10 -23 10 -12 0 -13 3 -4 12 7 7
12 17 12 23 0 5 -5 3 -11 -5 -9 -12 -10 -11 -6 7 4 16 1 20 -11 16 -11 -5 -14
-2 -9 10 3 8 3 17 -1 19 -4 2 -18 17 -31 33 -12 17 -26 30 -29 30 -4 0 -6 3
-5 8 4 10 -11 9 -25 -3 -9 -7 -9 -7 -2 2 14 17 12 32 -3 20 -9 -8 -20 -2 -41
19 -16 15 -33 26 -38 23 -6 -4 -5 3 1 14 16 30 13 39 -5 16 -8 -10 -13 -13 -9
-6 3 6 1 12 -4 12 -6 0 -11 6 -11 14 0 23 -24 37 -40 23 -10 -10 -12 -9 -7 5
7 19 -17 43 -32 34 -6 -4 -8 2 -6 15 2 12 2 19 -2 15 -10 -10 -33 15 -33 36 0
11 -4 16 -11 12 -8 -4 -9 0 -4 15 5 17 3 20 -11 14 -12 -4 -15 -3 -10 5 4 7 0
15 -9 18 -13 6 -14 8 -3 15 10 7 9 9 -4 9 -10 0 -18 5 -18 11 0 5 6 7 13 3 8
-5 8 -2 -2 9 -7 9 -10 17 -5 17 5 1 -2 7 -16 15 -14 8 -22 14 -17 15 4 0 -2 9
-13 20 -12 12 -18 25 -15 29 3 5 -4 7 -15 4 -13 -4 -20 0 -20 9 0 10 -10 13
-30 12 -19 -1 -28 2 -23 9 4 6 0 8 -10 4 -16 -6 -22 4 -18 27 1 5 -5 3 -14 -4
-13 -11 -14 -10 -8 6 6 17 5 18 -13 4 -10 -8 -16 -11 -12 -6 11 13 -15 36 -29
24 -9 -7 -11 -4 -8 12 3 18 2 20 -10 10 -11 -9 -15 -9 -15 -1 0 6 -6 11 -14
11 -8 0 -17 6 -19 13 -4 9 -6 9 -6 -1 -1 -10 -4 -10 -16 2 -8 8 -15 20 -15 26
0 6 -4 8 -10 5 -5 -3 -10 -1 -10 5 0 6 -3 9 -8 7 -4 -3 -23 4 -42 15 -19 10
-26 16 -15 13 15 -5 17 -3 9 5 -9 9 -17 9 -34 0 -15 -8 -20 -8 -16 -1 7 10 -7
16 -28 12 -5 -1 -4 4 3 12 9 12 8 15 -6 13 -10 0 -24 -8 -31 -16 -8 -8 -11 -9
-7 -3 4 8 -4 18 -19 25 -14 6 -26 15 -26 20 0 4 -4 8 -10 8 -5 0 -7 -8 -3 -17
5 -15 3 -14 -10 2 -11 13 -16 15 -17 6 0 -10 -3 -11 -14 -2 -11 10 -17 7 -29
-10 l-15 -21 -13 20 c-11 17 -16 19 -29 9 -9 -7 -9 -4 3 9 15 18 15 23 4 27
-24 9 -267 6 -261 -4 3 -5 -4 -9 -16 -9 -14 0 -19 -4 -14 -12 5 -9 2 -9 -9 1
-9 7 -17 10 -17 5 0 -4 -6 1 -14 11 -13 18 -13 18 -24 -1z m420 -46 c-7 -7
-12 -8 -12 -2 0 14 12 26 19 19 2 -3 -1 -11 -7 -17z m-937 -498 c3 -5 1 -10
-4 -10 -6 0 -11 5 -11 10 0 6 2 10 4 10 3 0 8 -4 11 -10z m1773 -85 c-3 -3 -9
2 -12 12 -6 14 -5 15 5 6 7 -7 10 -15 7 -18z m193 -177 c8 -15 8 -18 0 -14 -6
4 -16 16 -22 28 -8 15 -8 18 0 14 6 -4 16 -16 22 -28z m164 -548 c3 -6 -1 -7
-9 -4 -18 7 -21 14 -7 14 6 0 13 -4 16 -10z m161 -1217 c-3 -20 -22 -28 -31
-14 -4 7 0 8 10 5 9 -4 15 -3 14 2 -2 13 0 24 5 24 2 0 3 -8 2 -17z m-2486
-272 c0 -6 -4 -12 -8 -15 -5 -3 -9 1 -9 9 0 8 4 15 9 15 4 0 8 -4 8 -9z m30
-22 c0 -5 -6 -7 -12 -3 -10 6 -10 5 -1 -7 10 -12 8 -17 -7 -27 -16 -10 -18 -9
-15 8 2 11 7 25 10 30 8 13 25 13 25 -1z m35 1 c3 -6 -1 -7 -9 -4 -18 7 -21
14 -7 14 6 0 13 -4 16 -10z m2351 -46 c1 -9 0 -13 -4 -10 -3 4 -7 14 -8 22 -1
9 0 13 4 10 3 -4 7 -14 8 -22z m-2319 -3 c0 -11 -5 -18 -9 -15 -4 3 -5 11 -1
19 7 21 12 19 10 -4z m-43 -69 c3 -5 -1 -9 -9 -9 -8 0 -12 4 -9 9 3 4 7 8 9 8
2 0 6 -4 9 -8z m-4 -32 c16 -10 15 -12 -21 -27 -25 -11 -26 -11 -15 13 12 27
15 28 36 14z m10 -46 c0 -8 -19 -13 -24 -6 -3 5 1 9 9 9 8 0 15 -2 15 -3z
m2283 -1 c-20 -7 -15 -23 5 -16 9 3 14 3 11 -1 -4 -4 -19 -9 -35 -12 -20 -3
-25 -1 -15 5 7 5 11 13 8 18 -3 5 4 9 16 10 12 0 16 -1 10 -4z m44 -75 c2 -17
0 -19 -7 -8 -5 8 -6 18 -4 22 8 12 10 10 11 -14z m-25 -13 c0 -5 -5 -10 -12
-11 -7 -2 -6 -1 1 3 8 4 7 8 -2 15 -11 8 -11 9 -1 6 8 -2 14 -8 14 -13z
m-2266 -30 c1 -8 -4 -15 -12 -15 -8 0 -13 5 -11 11 1 6 -3 13 -10 16 -13 5
-12 -14 1 -37 5 -8 -3 -4 -17 9 -29 26 -36 47 -14 38 8 -3 20 -1 28 4 15 9 32
-2 35 -26z m14 -42 c0 -5 -5 -15 -10 -23 -7 -12 -9 -10 -7 8 1 19 17 33 17 15z
m2287 -8 c0 -8 -4 -12 -9 -9 -5 3 -6 10 -3 15 9 13 12 11 12 -6z m-2361 -42
c-10 -10 -19 5 -10 18 6 11 8 11 12 0 2 -7 1 -15 -2 -18z m112 -67 c-7 -8 -15
-12 -17 -11 -5 6 10 25 20 25 5 0 4 -6 -3 -14z m122 -106 c-10 -6 -11 -10 -2
-10 6 0 12 -5 12 -11 0 -8 -4 -8 -13 0 -10 7 -17 7 -24 0 -8 -8 -13 -7 -18 3
-5 7 -5 10 0 6 4 -4 14 -1 22 7 8 8 20 15 26 15 7 0 6 -4 -3 -10z m50 -40 c0
-5 -2 -10 -4 -10 -3 0 -8 5 -11 10 -3 6 -1 10 4 10 6 0 11 -4 11 -10z m50 -91
c-6 -11 -15 -17 -21 -14 -5 4 -5 14 1 26 6 11 15 17 21 14 5 -4 5 -14 -1 -26z"/>
<path d="M3110 3895 c0 -5 5 -17 10 -25 5 -8 10 -10 10 -5 0 6 -5 17 -10 25
-5 8 -10 11 -10 5z"/>
<path d="M3347 3409 c7 -7 15 -10 18 -7 3 3 -2 9 -12 12 -14 6 -15 5 -6 -5z"/>
<path d="M3356 3381 c-3 -5 2 -15 12 -22 15 -13 16 -12 4 3 -10 13 -10 17 0
21 9 4 9 6 1 6 -6 1 -14 -3 -17 -8z"/>
<path d="M970 3020 c0 -5 5 -10 11 -10 5 0 7 5 4 10 -3 6 -8 10 -11 10 -2 0
-4 -4 -4 -10z"/>
<path d="M3530 1819 c0 -5 5 -7 10 -4 6 3 10 8 10 11 0 2 -4 4 -10 4 -5 0 -10
-5 -10 -11z"/>
<path d="M3487 1791 c-3 -14 -1 -18 10 -14 8 3 13 0 11 -7 -2 -7 2 -14 9 -17
7 -2 11 4 10 16 0 11 -6 19 -12 18 -5 -1 -9 4 -7 11 4 20 -15 14 -21 -7z"/>
<path d="M980 1765 c0 -8 2 -15 4 -15 2 0 6 7 10 15 3 8 1 15 -4 15 -6 0 -10
-7 -10 -15z"/>
<path d="M956 1721 c-3 -5 2 -15 12 -22 15 -12 16 -12 5 2 -7 9 -10 19 -6 22
3 4 4 7 0 7 -3 0 -8 -4 -11 -9z"/>
<path d="M3605 1691 c-3 -5 -2 -12 3 -15 5 -3 9 1 9 9 0 17 -3 19 -12 6z"/>
<path d="M999 1688 c-7 -23 -4 -35 7 -35 9 0 11 4 4 12 -5 7 -7 15 -3 18 3 4
3 7 0 7 -4 0 -7 -1 -8 -2z"/>
<path d="M3547 1648 c-8 -22 14 -40 33 -28 11 7 12 10 2 10 -7 0 -10 5 -6 12
4 6 3 8 -4 4 -5 -3 -12 -1 -14 6 -3 8 -7 6 -11 -4z"/>
<path d="M3425 1580 c-4 -6 -11 -7 -17 -4 -7 4 -8 2 -4 -5 6 -9 11 -9 22 0 14
11 18 19 10 19 -3 0 -8 -5 -11 -10z"/>
<path d="M1034 1498 c-3 -4 2 -8 10 -8 8 0 17 4 20 8 3 5 -2 9 -10 9 -8 0 -17
-4 -20 -9z"/>
<path d="M1088 1493 c-10 -2 -18 -9 -18 -14 0 -14 16 -11 30 6 7 8 11 14 9 14
-2 -1 -12 -3 -21 -6z"/>
<path d="M3550 1496 c0 -2 8 -10 18 -17 15 -13 16 -12 3 4 -13 16 -21 21 -21
13z"/>
<path d="M1042 1460 c-15 -25 -15 -30 0 -30 6 0 8 3 5 7 -4 3 -2 12 5 20 6 7
9 15 7 18 -3 2 -10 -5 -17 -15z"/>
<path d="M986 1441 c-4 -5 3 -7 14 -4 23 6 26 13 6 13 -8 0 -17 -4 -20 -9z"/>
<path d="M3486 1419 c2 -4 0 -10 -5 -13 -10 -7 -8 -42 2 -38 4 1 10 2 13 2 4
0 1 7 -6 15 -7 9 -8 15 -2 15 5 0 12 6 15 13 3 8 -1 14 -9 14 -7 0 -11 -4 -8
-8z"/>
<path d="M1036 1302 c-3 -5 1 -9 9 -9 8 0 12 4 9 9 -3 4 -7 8 -9 8 -2 0 -6 -4
-9 -8z"/>
<path d="M1107 1296 c-3 -8 0 -16 7 -19 6 -3 13 4 13 14 2 22 -12 25 -20 5z"/>
<path d="M3374 1275 c1 -8 6 -18 11 -22 4 -4 5 -3 2 4 -4 6 -2 13 5 15 8 3 6
6 -4 10 -10 4 -15 2 -14 -7z"/>
<path d="M1087 1265 c3 -8 9 -12 14 -9 12 7 11 11 -5 17 -10 4 -13 1 -9 -8z"/>
<path d="M3303 1220 c0 -16 4 -30 8 -30 8 0 5 47 -3 55 -3 3 -5 -8 -5 -25z"/>
<path d="M1220 1180 c-9 -6 -10 -10 -3 -10 6 0 15 5 18 10 8 12 4 12 -15 0z"/>
<path d="M1305 1071 c-3 -6 11 -17 30 -27 29 -13 34 -21 30 -38 -6 -20 -5 -20
6 -2 10 16 9 22 -7 33 -12 9 -14 13 -4 13 11 0 10 5 -4 18 -13 12 -20 14 -23
5 -3 -7 -9 -13 -14 -13 -6 0 -7 5 -4 10 3 6 4 10 1 10 -3 0 -7 -4 -11 -9z"/>
<path d="M1322 1018 c-7 -7 -12 -17 -12 -22 0 -6 5 -3 11 7 6 9 15 14 21 11 7
-4 8 -2 4 4 -9 15 -9 15 -24 0z"/>
</g>
</svg>
